<svg width="227" height="182" viewBox="0 0 227 182" fill="none" xmlns="http://www.w3.org/2000/svg">
<path d="M203.767 108.478C254.637 38.7575 211.827 11.0975 149.237 60.3475C137.587 -20.1325 88.5871 -20.0725 76.9271 60.2675C14.6771 11.3675 -27.9729 38.4975 21.8471 107.607C3.63714 116.727 -9.22286 136.987 8.41714 153.117C35.0671 176.017 71.5571 180.727 111.557 181.677C151.327 180.557 188.237 175.598 214.797 152.628C231.437 137.528 221.147 117.758 203.767 108.478ZM186.957 50.2575C235.207 30.2575 210.797 83.1375 194.087 103.417C181.247 97.6475 167.437 93.8775 151.237 91.3175C151.327 85.2075 151.097 79.0175 150.647 73.0675C162.807 62.8475 175.347 54.9575 186.957 50.2575ZM150.857 102.147C164.367 104.337 176.587 107.667 187.067 112.107C174.097 127.307 156.217 142.678 140.457 151.488C146.127 137.858 149.697 120.707 150.857 102.147ZM85.7171 89.0875C86.1071 66.0175 90.2571 18.6575 113.077 10.4175C136.067 18.7375 140.177 66.6575 140.437 89.8875C122.307 87.9175 103.867 87.9275 85.7171 89.7275V89.0875ZM85.6871 151.408C69.7471 142.478 51.6971 126.887 38.6971 111.507C49.3171 107.237 61.7571 103.998 75.2971 101.908C76.4271 120.518 80.0171 137.738 85.6871 151.408ZM15.0971 74.4175C-6.08286 22.0075 56.0071 54.7875 75.5371 72.9875C75.0671 78.8875 74.8671 85.0175 74.9271 91.0875C58.7471 93.4875 44.1971 97.3575 31.6771 102.757C24.4671 93.1575 18.7971 83.5075 15.0971 74.4175ZM101.037 170.688C71.3471 171.337 -28.4029 148.177 28.5571 116.207C48.8271 140.417 73.9371 162.827 101.037 170.688C102.637 170.767 99.4071 170.668 101.037 170.688ZM86.0371 100.527C103.787 98.6775 122.387 98.6975 140.117 100.688C138.107 123.868 135.207 146.228 120.417 163.818C97.3871 181.758 86.0471 116.037 86.0371 100.527ZM207.157 145.027C186.057 163.357 154.567 168.478 123.507 170.598C149.917 162.658 177.017 140.777 197.027 117.027C208.167 123.227 219.357 134.227 207.157 145.027Z" fill="#F1ECE4"/>
</svg>
