<svg width="746" height="182" viewBox="0 0 746 182" fill="none" xmlns="http://www.w3.org/2000/svg">
  <path d="M203.767 108.478C254.637 38.7575 211.827 11.0975 149.237 60.3475C137.587 -20.1325 88.5871 -20.0725 76.9271 60.2675C14.6771 11.3675 -27.9729 38.4975 21.8471 107.607C3.63714 116.727 -9.22286 136.987 8.41714 153.117C35.0671 176.017 71.5571 180.727 111.557 181.677C151.327 180.557 188.237 175.598 214.797 152.628C231.437 137.528 221.147 117.758 203.767 108.478ZM186.957 50.2575C235.207 30.2575 210.797 83.1375 194.087 103.417C181.247 97.6475 167.437 93.8775 151.237 91.3175C151.327 85.2075 151.097 79.0175 150.647 73.0675C162.807 62.8475 175.347 54.9575 186.957 50.2575ZM150.857 102.147C164.367 104.337 176.587 107.667 187.067 112.107C174.097 127.307 156.217 142.678 140.457 151.488C146.127 137.858 149.697 120.707 150.857 102.147ZM85.7171 89.0875C86.1071 66.0175 90.2571 18.6575 113.077 10.4175C136.067 18.7375 140.177 66.6575 140.437 89.8875C122.307 87.9175 103.867 87.9275 85.7171 89.7275V89.0875ZM85.6871 151.408C69.7471 142.478 51.6971 126.887 38.6971 111.507C49.3171 107.237 61.7571 103.998 75.2971 101.908C76.4271 120.518 80.0171 137.738 85.6871 151.408ZM15.0971 74.4175C-6.08286 22.0075 56.0071 54.7875 75.5371 72.9875C75.0671 78.8875 74.8671 85.0175 74.9271 91.0875C58.7471 93.4875 44.1971 97.3575 31.6771 102.757C24.4671 93.1575 18.7971 83.5075 15.0971 74.4175ZM101.037 170.688C71.3471 171.337 -28.4029 148.177 28.5571 116.207C48.8271 140.417 73.9371 162.827 101.037 170.688C102.637 170.767 99.4071 170.668 101.037 170.688ZM86.0371 100.527C103.787 98.6775 122.387 98.6975 140.117 100.688C138.107 123.868 135.207 146.228 120.417 163.818C97.3871 181.758 86.0471 116.037 86.0371 100.527ZM207.157 145.027C186.057 163.357 154.567 168.478 123.507 170.598C149.917 162.658 177.017 140.777 197.027 117.027C208.167 123.227 219.357 134.227 207.157 145.027Z" fill="currentColor"/>
  <path d="M365.917 159.947H345.407L302.097 110.127V159.947H285.997V21.9575H302.097V104.257L341.387 63.3475H361.127L318.487 107.177L365.917 159.947Z" fill="currentColor"/>
  <path d="M396.177 24.0675C394.007 22.0175 391.387 20.9975 388.317 20.9975C385.247 20.9975 382.447 22.0175 380.267 24.0675C378.227 25.9775 377.207 28.5375 377.207 31.7275C377.207 34.9175 378.227 37.6075 380.267 39.7775C382.447 41.8275 385.127 42.8475 388.317 42.8475C391.507 42.8475 394.007 41.8275 396.177 39.7775C398.347 37.6075 399.437 34.9275 399.437 31.7275C399.437 28.5275 398.347 25.9775 396.177 24.0675Z" fill="currentColor"/>
  <path d="M396.367 63.3475H380.267V159.947H396.367V63.3475Z" fill="currentColor"/>
  <path d="M420.947 159.947V63.3475H435.517L436.287 80.2175C439.357 74.2175 443.697 69.5475 449.317 66.2275C455.067 62.7775 461.577 61.0575 468.867 61.0575C476.157 61.0575 482.917 62.5875 488.417 65.6575C493.907 68.5975 498.187 73.1275 501.257 79.2675C504.327 85.2775 505.857 92.9375 505.857 102.267V159.958H489.757V103.997C489.757 94.2875 487.587 87.0075 483.237 82.1475C479.017 77.2875 473.017 74.8675 465.227 74.8675C459.857 74.8675 455.067 76.2075 450.857 78.8875C446.637 81.4475 443.257 85.2075 440.697 90.1975C438.267 95.0575 437.057 101.118 437.057 108.408V159.958H420.957L420.947 159.947Z" fill="currentColor"/>
  <path d="M558.597 162.247C550.807 162.247 544.287 160.907 539.047 158.217C533.807 155.407 529.907 151.768 527.357 147.298C524.797 142.698 523.527 137.717 523.527 132.347C523.527 125.827 525.187 120.338 528.507 115.868C531.957 111.268 536.747 107.817 542.877 105.517C549.137 103.087 556.487 101.877 564.917 101.877H590.407C590.407 95.8775 589.447 90.8875 587.527 86.9275C585.737 82.8375 583.057 79.7775 579.477 77.7275C576.027 75.6875 571.687 74.6575 566.447 74.6575C560.317 74.6575 555.007 76.1875 550.537 79.2575C546.067 82.3275 543.317 86.8575 542.297 92.8675H525.817C526.587 85.9675 528.887 80.2175 532.717 75.6175C536.677 70.8875 541.657 67.3175 547.667 64.8875C553.677 62.3275 559.937 61.0575 566.447 61.0575C575.387 61.0575 582.797 62.7175 588.677 66.0375C594.687 69.2275 599.157 73.7675 602.097 79.6475C605.037 85.3975 606.507 92.2275 606.507 100.158V159.947H592.137L591.177 142.887C589.897 145.567 588.237 148.127 586.197 150.557C584.277 152.857 581.977 154.898 579.297 156.688C576.617 158.347 573.547 159.688 570.097 160.708C566.777 161.728 562.947 162.238 558.597 162.238V162.247ZM561.087 148.637C565.557 148.637 569.587 147.747 573.157 145.957C576.867 144.037 579.997 141.487 582.547 138.287C585.097 134.967 587.017 131.328 588.297 127.368C589.697 123.408 590.407 119.258 590.407 114.908V114.337H566.257C559.997 114.337 554.947 115.107 551.117 116.637C547.287 118.047 544.537 120.087 542.877 122.767C541.217 125.327 540.387 128.257 540.387 131.587C540.387 134.917 541.157 138.037 542.687 140.597C544.347 143.157 546.717 145.137 549.777 146.537C552.967 147.937 556.737 148.647 561.087 148.647V148.637Z" fill="currentColor"/>
  <path d="M627.577 159.947V21.9575H643.677V159.947H627.577Z" fill="currentColor"/>
  <path d="M697.847 162.247C690.057 162.247 683.537 160.907 678.297 158.217C673.057 155.407 669.157 151.768 666.607 147.298C664.047 142.698 662.777 137.717 662.777 132.347C662.777 125.827 664.437 120.338 667.757 115.868C671.207 111.268 675.997 107.817 682.127 105.517C688.387 103.087 695.737 101.877 704.167 101.877H729.657C729.657 95.8775 728.697 90.8875 726.777 86.9275C724.987 82.8375 722.307 79.7775 718.727 77.7275C715.277 75.6875 710.937 74.6575 705.697 74.6575C699.567 74.6575 694.267 76.1875 689.787 79.2575C685.317 82.3275 682.567 86.8575 681.547 92.8675H665.067C665.837 85.9675 668.137 80.2175 671.967 75.6175C675.927 70.8875 680.907 67.3175 686.917 64.8875C692.917 62.3275 699.187 61.0575 705.697 61.0575C714.637 61.0575 722.047 62.7175 727.927 66.0375C733.927 69.2275 738.407 73.7675 741.337 79.6475C744.277 85.3975 745.747 92.2275 745.747 100.158V159.947H731.377L730.417 142.887C729.137 145.567 727.477 148.127 725.437 150.557C723.517 152.857 721.217 154.898 718.537 156.688C715.857 158.347 712.787 159.688 709.337 160.708C706.017 161.728 702.187 162.238 697.837 162.238L697.847 162.247ZM700.337 148.637C704.807 148.637 708.837 147.747 712.407 145.957C716.117 144.037 719.247 141.487 721.797 138.287C724.357 134.967 726.267 131.328 727.547 127.368C728.957 123.408 729.657 119.258 729.657 114.908V114.337H705.507C699.247 114.337 694.197 115.107 690.367 116.637C686.537 118.047 683.787 120.087 682.127 122.767C680.467 125.327 679.637 128.257 679.637 131.587C679.637 134.917 680.407 138.037 681.937 140.597C683.597 143.157 685.957 145.137 689.027 146.537C692.217 147.937 695.987 148.647 700.337 148.647V148.637Z" fill="currentColor"/>
</svg>
